<svg xmlns="http://www.w3.org/2000/svg" width="58.662" height="41.247" viewBox="0 0 58.662 41.247">
  <path id="Icon_awesome-youtube" data-name="Icon awesome-youtube" d="M58.486,10.954A7.371,7.371,0,0,0,53.3,5.734C48.725,4.5,30.381,4.5,30.381,4.5S12.037,4.5,7.462,5.734a7.371,7.371,0,0,0-5.186,5.22C1.05,15.558,1.05,25.165,1.05,25.165s0,9.607,1.226,14.211a7.261,7.261,0,0,0,5.186,5.137c4.575,1.234,22.919,1.234,22.919,1.234s18.344,0,22.919-1.234a7.261,7.261,0,0,0,5.186-5.137c1.226-4.6,1.226-14.211,1.226-14.211s0-9.607-1.226-14.211Zm-34.1,22.934V16.443l15.332,8.723L24.381,33.887Z" transform="translate(-1.05 -4.5)" fill="#fff"/>
</svg>
