<svg xmlns="http://www.w3.org/2000/svg" width="48.121" height="48.121" viewBox="0 0 48.121 48.121">
  <path id="Icon_awesome-facebook-square" data-name="Icon awesome-facebook-square" d="M42.965,2.25H5.156A5.156,5.156,0,0,0,0,7.406v37.81a5.156,5.156,0,0,0,5.156,5.156H19.9V34.011H13.131v-7.7H19.9V20.442c0-6.676,3.974-10.363,10.061-10.363a41,41,0,0,1,5.964.52V17.15H32.564c-3.309,0-4.342,2.054-4.342,4.16v5h7.388l-1.182,7.7H28.223v16.36H42.965a5.156,5.156,0,0,0,5.156-5.156V7.406A5.156,5.156,0,0,0,42.965,2.25Z" transform="translate(0 -2.25)" fill="#fff"/>
</svg>
