<svg xmlns="http://www.w3.org/2000/svg" width="48.148" height="48.138" viewBox="0 0 48.148 48.138">
  <path id="Icon_awesome-instagram" data-name="Icon awesome-instagram" d="M24.074,13.965A12.342,12.342,0,1,0,36.416,26.306,12.322,12.322,0,0,0,24.074,13.965Zm0,20.366A8.024,8.024,0,1,1,32.1,26.306,8.038,8.038,0,0,1,24.074,34.33ZM39.8,13.46a2.879,2.879,0,1,1-2.879-2.879A2.872,2.872,0,0,1,39.8,13.46Zm8.174,2.922C47.791,12.525,46.91,9.109,44.085,6.3S37.855,2.6,34,2.407c-3.974-.226-15.886-.226-19.861,0C10.293,2.589,6.877,3.47,4.052,6.284S.357,12.514.164,16.371c-.226,3.974-.226,15.886,0,19.861C.347,40.087,1.227,43.5,4.052,46.317s6.23,3.7,10.086,3.888c3.974.226,15.886.226,19.861,0,3.856-.183,7.272-1.063,10.086-3.888s3.7-6.23,3.888-10.086c.226-3.974.226-15.876,0-19.85ZM42.839,40.5a8.123,8.123,0,0,1-4.576,4.576c-3.169,1.257-10.688.967-14.189.967s-11.031.279-14.189-.967A8.123,8.123,0,0,1,5.309,40.5c-1.257-3.169-.967-10.688-.967-14.189s-.279-11.031.967-14.189A8.123,8.123,0,0,1,9.885,7.541c3.169-1.257,10.688-.967,14.189-.967s11.031-.279,14.189.967a8.123,8.123,0,0,1,4.576,4.576c1.257,3.169.967,10.688.967,14.189S44.1,37.338,42.839,40.5Z" transform="translate(0.005 -2.237)" fill="#fff"/>
</svg>
